<?xml version="1.0" encoding="iso-8859-1"?>
<!-- Uploaded to: SVG Repo, www.svgrepo.com, Generator: SVG Repo Mixer Tools -->
<svg fill="#000000" height="800px" width="800px" version="1.1" id="Layer_1" xmlns="http://www.w3.org/2000/svg" xmlns:xlink="http://www.w3.org/1999/xlink" 
	 viewBox="0 0 511.997 511.997" xml:space="preserve">
<g>
	<g>
		<g>
			<path d="M511.201,367.01c-1.954-10.155-7.953-19.49-16.896-26.283l-204.169-154.88v-43.622c0-12.552-10.214-22.758-22.758-22.758
				h-2.842v-17.783c24.183-4.07,42.667-25.165,42.667-50.483c0-28.237-22.972-51.2-51.2-51.2c-28.237,0-51.2,22.963-51.2,51.2
				c0,4.71,3.814,8.533,8.533,8.533c4.71,0,8.533-3.823,8.533-8.533c0-18.825,15.309-34.133,34.133-34.133
				s34.133,15.309,34.133,34.133c0,18.816-15.309,34.133-34.133,34.133c-4.719,0-8.533,4.352-8.533,9.071v25.062h-2.842
				c-12.552,0-22.758,10.206-22.758,22.758v43.622L17.701,340.727C8.75,347.52,2.751,356.855,0.797,367.01
				c-2.44,12.757,0.836,25.728,8.986,35.593c8.158,9.873,20.173,15.531,32.964,15.531h59.657v-51.2H68.09L256.02,224.23
				l188.1,142.703h-34.517v51.2h59.656c12.792,0,24.798-5.658,32.956-15.531C510.365,392.738,513.641,379.767,511.201,367.01z"/>
			<path d="M372.268,341.331H139.735c-11.179,0-20.267,9.088-20.267,20.267v90.667h51.2c4.719,0,8.533,3.823,8.533,8.533
				s-3.814,8.533-8.533,8.533h-51.2v22.4c0,11.179,9.088,20.267,20.267,20.267h232.533c11.179,0,20.267-9.088,20.267-20.267v-22.4
				h-51.2c-4.719,0-8.533-3.823-8.533-8.533s3.814-8.533,8.533-8.533h51.2v-90.667C392.535,350.419,383.447,341.331,372.268,341.331
				z M298.668,469.331h-76.8c-4.719,0-8.533-3.823-8.533-8.533s3.814-8.533,8.533-8.533h76.8c4.719,0,8.533,3.823,8.533,8.533
				S303.387,469.331,298.668,469.331z"/>
		</g>
	</g>
</g>
</svg>